<svg height="512pt" viewBox="0 0 512 512.00027" width="512pt" xmlns="http://www.w3.org/2000/svg"><path d="m511.359375 222.105469c-1.324219-7.101563-7.519531-12.242188-14.734375-12.242188-.035156 0-.023438 0-.109375 0-1.050781 0-32.234375-.171875-62.574219-13.742187 37.980469-22.875 69.664063-47.632813 71.945313-49.421875 5.488281-4.316407 7.273437-11.851563 4.300781-18.167969-2.972656-6.320312-9.917969-9.75-16.742188-8.269531-.449218.097656-24.199218 5.21875-54.289062 10.636719 38.160156-49.582032 69.042969-105.835938 70.621094-108.722657 3.195312-5.851562 2.144531-13.109375-2.582032-17.8125-4.726562-4.703125-11.992187-5.71875-17.828124-2.492187-2.789063 1.542968-57.664063 32.035156-106.742188 69.679687 4.21875-30.648437 7.277344-54.128906 7.34375-54.625.875-6.742187-2.890625-13.226562-9.179688-15.804687-6.289062-2.578125-13.523437-.601563-17.628906 4.8125-1.734375 2.285156-25.507812 33.800781-47.707031 71.628906-13.863281-30.492188-15.296875-62.730469-15.3125-63.109375-.257813-7.222656-5.636719-13.234375-12.785156-14.289063-7.144531-1.058593-14.035157 3.136719-16.375 9.972657-1.203125 3.511719-25.5 75.605469-17.183594 131.621093-48.304687-5.835937-110.800781 9.46875-168.875 55.160157-.027344.023437-.054687.042969-.082031.066406-25.972656 20.445313-52.277344 47.890625-68.109375 77.6875-9.550781 14.871094-18.667969 45.503906-16.371094 73.3125 3.394531 41.113281 27.726563 77.28125 57.023437 106.578125 31.882813 31.882812 71.421876 57.4375 116.511719 57.4375 45.105469 0 84.652344-25.40625 116.679688-57.4375 41.828125-41.824219 69.554687-93.007812 78.074219-144.109375 2.992187-17.957031 3.503906-35.191406 1.644531-51.371094 7.289062 1.046875 14.839843 1.507813 22.476562 1.507813 51.230469 0 106.128907-20.566406 109.175781-21.726563 6.78125-2.574219 10.742188-9.632812 9.414063-16.757812zm-481.121094 123.410156c-1.246093-15.101563 1.394531-30.4375 7.855469-45.929687l59.542969 10.828124 10.257812 56.132813-76.773437-13.925781c-.386719-2.371094-.6875-4.742188-.882813-7.105469zm98.921875-29.371094 56.390625 10.253907 10.195313 56.078124-56.332032-10.214843zm30.96875-129.566406 3.574219 19.660156-31.066406-5.75c9.003906-5.296875 18.191406-9.953125 27.492187-13.910156zm9.308594 51.210937 10.382812 57.097657-56.421874-10.257813-10.472657-57.296875zm31.535156 5.832032 57.054688 10.554687 10.582031 56.851563-57.277344-10.414063zm16.089844 88.507812 57.417969 10.4375 10.433593 56.078125-57.65625-10.453125zm94.664062 46.722656-5.6875-30.546874 19.332032 3.515624c-3.890625 9.140626-8.457032 18.175782-13.644532 27.03125zm-11.554687-62.085937-10.5625-56.746094 51.492187 9.527344c.71875 11.398437.066407 23.441406-2.023437 35.976563-.980469 5.875-2.257813 11.753906-3.816406 17.625zm11.605469-116.59375c10.496094 10.496094 18.273437 23.261719 23.222656 37.757813l-51.265625-9.484376-9.578125-51.457031c14.441406 4.949219 27.15625 12.722657 37.621094 23.183594zm56.140625-28.460937c20.214843-2.023438 42.871093-5.464844 62.886719-8.882813-21.597657 13.765625-46.21875 27.738281-67.871094 35.757813 2.195312-9.972657 3.375-16.976563 4.984375-26.875zm84.714843-112.539063c-16.167968 25.210937-37.027343 55.203125-58.398437 79.070313-7.332031 1.050781-14.578125 2.007812-21.546875 2.804687 1.261719-8.425781 2.535156-17.105469 3.785156-25.78125 23.351563-20.484375 51.964844-40.453125 76.160156-56.09375zm-116.875 122.675781c-7.746093-8.25-16.46875-15.339844-26.144531-21.242187 7.222657-25.914063 25.320313-58.371094 42.207031-85.144531-3.253906 23.46875-11.671874 83.085937-16.0625 106.386718zm-50.988281-99.84375c3.585938 9.023438 8.070313 18.171875 13.621094 26.902344-5.527344 11.128906-10.4375 22.269531-14.1875 32.917969-3.480469-17.671875-2.398437-39.285157.566406-59.820313zm-78.34375 90.867188c12.042969-2.007813 24.148438-2.785156 36.09375-2.023438l9.632813 51.753906-56.917969-10.53125-6.433594-35.382812c5.871094-1.554688 11.75-2.835938 17.625-3.816406zm-127.839843 69.699218c1.859374-1.859374 3.746093-3.683593 5.648437-5.480468l7.640625 41.804687-38.292969-6.960937c6.855469-9.757813 15.191407-19.550782 25.003907-29.363282zm-36.503907 142.511719 71.574219 12.976563 13.117188 71.761718c-15.925782-8.128906-32.03125-20.300781-48.1875-36.457031-16.1875-16.1875-28.375-32.324219-36.503907-48.28125zm124.351563 96.628907c-2.386719-.199219-4.777344-.5-7.175782-.890626l-14.082031-77.042968 56.300781 10.207031 10.882813 59.871094c-15.488281 6.460937-30.828125 9.101562-45.925781 7.855469zm73.582031-23.34375-7.03125-38.671876 42.21875 7.65625c-1.90625 2.023438-3.84375 4.03125-5.824219 6.011719-9.8125 9.8125-19.605468 18.148438-29.363281 25.003907zm128.40625-230.007813c11.117187-3.828125 22.800781-9.011719 34.472656-14.929687 8.980469 5.664062 18.328125 10.136718 27.5 13.632812-21.304687 3.65625-43.882812 5.21875-61.972656 1.296875zm0 0"/></svg>